# xmcd CD database file
#
# Track frame offsets:
#	150
#	18761
#	32532
#	48103
#	65520
#	77957
#	93026
#	108782
#	127212
#	143696
#
# Disc length: 2158 seconds
#
# Revision: 0
# Processed by: cddbd v1.5.2PL0 Copyright (c) Steve Scherf et al.
# Submitted via: CDex 1.70beta2
#
DISCID=74086c0a
DTITLE=Zenet - Todas las calles
DYEAR=2010
DGENRE=Jazz
TTITLE0=Ella era mala
TTITLE1=No lo dudes
TTITLE2=Amanecio sin querer
TTITLE3=Todo lo que nos quisimos
TTITLE4=Tu amor es tanto
TTITLE5=Fue por casualidad
TTITLE6=¿Por que no me dejas?
TTITLE7=Piedras al sol
TTITLE8=30 de febrero
TTITLE9=La ultima bala
EXTD=YEAR: 2010
EXTT0=
EXTT1=
EXTT2=
EXTT3=
EXTT4=
EXTT5=
EXTT6=
EXTT7=
EXTT8=
EXTT9=
PLAYORDER=
